HIERARCHY
ROOT Hips
{
	OFFSET 0.00000 0.00000 0.00000
	CHANNELS 6 Xposition Yposition Zposition Zrotation Yrotation Xrotation 
	JOINT LHipJoint
	{
		OFFSET 0 0 0
		CHANNELS 3 Zrotation Yrotation Xrotation
		JOINT LeftHip
		{
			OFFSET 1.92384 -1.64427 0.83032
			CHANNELS 3 Zrotation Yrotation Xrotation
			JOINT LeftKnee
			{
				OFFSET 2.52872 -6.94761 0.00000
				CHANNELS 3 Zrotation Yrotation Xrotation
				JOINT LeftAnkle
				{
					OFFSET 2.51827 -6.91890 0.00000
					CHANNELS 3 Zrotation Yrotation Xrotation
					JOINT LeftToe
					{
						OFFSET 0.22757 -0.62524 2.06528
						CHANNELS 3 Zrotation Yrotation Xrotation
						End Site
						{
							OFFSET 0.00000 -0.00000 1.08218
						}
					}
				}
			}
		}
	}
	JOINT RHipJoint
	{
		OFFSET 0 0 0
		CHANNELS 3 Zrotation Yrotation Xrotation
		JOINT RightHip
		{
			OFFSET -2.09517 -1.64427 0.83032
			CHANNELS 3 Zrotation Yrotation Xrotation
			JOINT RightKnee
			{
				OFFSET -2.55173 -7.01082 0.00000
				CHANNELS 3 Zrotation Yrotation Xrotation
				JOINT RightAnkle
				{
					OFFSET -2.50265 -6.87598 0.00000
					CHANNELS 3 Zrotation Yrotation Xrotation
					JOINT RightToe
					{
						OFFSET -0.22612 -0.62126 1.98677
						CHANNELS 3 Zrotation Yrotation Xrotation
						End Site
						{
							OFFSET -0.00000 -0.00000 1.04433
						}
					}
				}
			}
		}
	}
	JOINT lowerback
	{
		OFFSET 0 0 0
		CHANNELS 3 Zrotation Yrotation Xrotation
		JOINT Chest
		{
			OFFSET 0.02839 1.68926 0.31690
			CHANNELS 3 Zrotation Yrotation Xrotation
			JOINT Chest2
			{
				OFFSET -0.01522 1.70183 0.21192
				CHANNELS 3 Zrotation Yrotation Xrotation
				JOINT lowerneck
				{
					OFFSET 0 0 0
					CHANNELS 3 Zrotation Yrotation Xrotation
					JOINT Neck
					{
						OFFSET -0.04523 1.88988 0.10630
						CHANNELS 3 Zrotation Yrotation Xrotation
						JOINT Head
						{
							OFFSET 0.05172 1.78070 -0.56858
							CHANNELS 3 Zrotation Yrotation Xrotation
							End Site
							{
								OFFSET 0.01532 1.90392 -0.20434
							}
						}
					}
				}
				JOINT LeftCollar
				{
					OFFSET 0 0 0
					CHANNELS 3 Zrotation Yrotation Xrotation
					JOINT LeftShoulder
					{
						OFFSET 3.25522 0.75486 0.22086
CHANNELS 3 Zrotation Xrotation Yrotation
						JOINT LeftElbow
						{
OFFSET 0 -4.856450 0.000000
CHANNELS 3 Zrotation Xrotation Yrotation
							JOINT LeftWrist
							{
OFFSET 0 -2.798740 0.000000
CHANNELS 3 Zrotation Xrotation Yrotation
								JOINT lhand
								{
									OFFSET 0 0 0
CHANNELS 3 Zrotation Xrotation Yrotation
									JOINT LFingers
									{
OFFSET 0 -0.573400 0.000000
CHANNELS 3 Zrotation Xrotation Yrotation
										End Site
										{
OFFSET 0 -0.462290 0.000000
										}
									}
								}
								JOINT LThumb
								{
OFFSET 0 0.000000 0.000000
CHANNELS 3 Zrotation Xrotation Yrotation
									End Site
									{
OFFSET 0 -0.469350 0.469350
									}
								}
							}
						}
					}
				}
				JOINT RightCollar
				{
					OFFSET 0 0 0
					CHANNELS 3 Zrotation Yrotation Xrotation
					JOINT RightShoulder
					{
						OFFSET -3.29079 0.52751 0.36356
CHANNELS 3 Zrotation Xrotation Yrotation
						JOINT RightElbow
						{
OFFSET 0 -4.670180 0.000000
CHANNELS 3 Zrotation Xrotation Yrotation
							JOINT RightWrist
							{
OFFSET 0 -2.655340 0.000000
CHANNELS 3 Zrotation Xrotation Yrotation
								JOINT rhand
								{
									OFFSET 0 0 0
CHANNELS 3 Zrotation Xrotation Yrotation
									JOINT RFingers
									{
OFFSET 0 -0.594070 0.000000
CHANNELS 3 Zrotation Xrotation Yrotation
										End Site
										{
OFFSET 0 -0.478950 0.000000
										}
									}
								}
								JOINT RThumb
								{
OFFSET 0 0.000000 0.000000
CHANNELS 3 Zrotation Xrotation Yrotation
									End Site
									{
OFFSET 0 -0.486270 0.486270
									}
								}
							}
						}
					}
				}
			}
		}
	}
}
MOTION
Frames: 11
Frame Time: 0.008333333333333333
7.154844 17.362247 22.315523 0.830173 -4.502159 28.300109 0.000000 0.000000 0.000000 -11.095850 -22.375437 -31.661900 1.400815 7.487055 21.166465 -1.315388 20.312004 -12.654574 0.808725 -5.738966 -16.028909 0.000000 0.000000 0.000000 9.239242 22.960100 -36.230210 -1.996256 -8.858191 25.352707 0.135882 -14.366340 -18.820813 -0.004815 -0.449882 1.236158 -0.383496 -0.055477 -21.244528 -0.867504 -0.111583 -16.609772 -0.735176 -0.110751 -6.418984 -4.782636 -3.837438 -14.205840 4.276814 -5.705214 29.879494 1.593876 -2.567925 12.520610 0.000000 0.000000 0.000000 12.065089 17.930694 -37.960430 18.014259 -28.175440 4.555984 11.587574 11.393994 -22.664869 0.000000 0.000000 0.000000 -7.125000 0.000000 0.000000 -17.751918 52.191752 3.226056 0.000000 0.000000 0.000000 -12.497089 22.253471 39.275163 -20.135705 -30.805497 -5.600662 -15.664935 14.569923 12.813635 0.000000 0.000000 0.000000 7.125000 0.000000 0.000000 10.546978 43.022133 0.520933
7.148954 17.367657 22.340006 0.797145 -4.588699 28.113111 0.000000 0.000000 0.000000 -11.101189 -22.551103 -31.096870 1.368338 7.403189 20.915448 -1.376072 20.717087 -12.777838 0.794155 -5.688404 -15.882924 0.000000 0.000000 0.000000 9.394095 23.002693 -35.757296 -1.959888 -8.782045 25.115850 0.140302 -14.412234 -18.836550 -0.004912 -0.452866 1.244411 -0.341317 -0.069267 -21.394368 -0.798996 -0.136706 -16.688399 -0.689031 -0.124605 -6.437993 -4.878802 -3.890488 -14.190250 4.341540 -5.784913 29.941060 1.623309 -2.606953 12.553016 0.000000 0.000000 0.000000 11.807383 18.223751 -37.193569 18.008171 -28.167589 4.553102 11.402544 12.542571 -22.458089 0.000000 0.000000 0.000000 -7.125000 0.000000 0.000000 -17.830596 51.962294 3.139082 0.000000 0.000000 0.000000 -12.674594 22.154268 39.693988 -20.311754 -31.016100 -5.691116 -15.514976 14.638728 12.976518 0.000000 0.000000 0.000000 7.125000 0.000000 0.000000 10.718794 43.172045 0.489548
7.143504 17.373443 22.361732 0.769833 -4.656390 27.953190 0.000000 0.000000 0.000000 -11.066907 -22.817465 -30.552565 1.335802 7.318330 20.661830 -1.449942 21.192023 -12.889836 0.780154 -5.639066 -15.740763 0.000000 0.000000 0.000000 9.518994 23.066253 -35.326458 -1.925469 -8.709174 24.889641 0.147621 -14.488838 -18.864680 -0.005253 -0.468362 1.286877 -0.303203 -0.092982 -21.544131 -0.726019 -0.173938 -16.761126 -0.637535 -0.143965 -6.450384 -4.973242 -3.928733 -14.198580 4.432513 -5.853042 30.042440 1.664245 -2.636637 12.607039 0.000000 0.000000 0.000000 11.480275 18.507630 -36.477911 18.042617 -28.211692 4.569380 11.589183 12.746399 -22.429835 0.000000 0.000000 0.000000 -7.125000 0.000000 0.000000 -17.637405 51.966722 3.105141 0.000000 0.000000 0.000000 -12.824001 22.050977 40.064956 -20.452232 -31.183350 -5.763684 -15.460161 14.724979 13.087331 0.000000 0.000000 0.000000 7.125000 0.000000 0.000000 10.794024 43.278196 0.464403
7.138482 17.377152 22.380991 0.745572 -4.715621 27.815308 0.000000 0.000000 0.000000 -11.077458 -22.940887 -30.106954 1.307740 7.243972 20.440194 -1.497304 21.490837 -12.964933 0.772491 -5.612221 -15.663228 0.000000 0.000000 0.000000 9.620128 23.143194 -34.950297 -1.896943 -8.648051 24.700346 0.155372 -14.574881 -18.903039 -0.005594 -0.481604 1.323358 -0.262667 -0.117311 -21.698606 -0.656907 -0.212284 -16.825941 -0.591921 -0.164271 -6.451320 -5.061944 -3.955186 -14.248404 4.555126 -5.917699 30.208604 1.716978 -2.658845 12.697514 0.000000 0.000000 0.000000 11.102937 18.777853 -35.822063 18.110568 -28.298428 4.601515 12.060030 12.058060 -22.564099 0.000000 0.000000 0.000000 -7.125000 0.000000 0.000000 -17.247387 52.175246 3.122772 0.000000 0.000000 0.000000 -12.920963 21.944751 40.339319 -20.548812 -31.297857 -5.813779 -15.480487 14.811072 13.091608 0.000000 0.000000 0.000000 7.125000 0.000000 0.000000 10.777067 43.285151 0.461806
7.134038 17.379649 22.398342 0.727374 -4.776136 27.700467 0.000000 0.000000 0.000000 -11.114044 -22.977505 -29.752781 1.286405 7.186888 20.270307 -1.525003 21.669573 -13.046481 0.767770 -5.595229 -15.614364 0.000000 0.000000 0.000000 9.699800 23.214431 -34.642230 -1.876212 -8.603372 24.562292 0.159988 -14.640125 -18.947204 -0.005600 -0.483900 1.329600 -0.223837 -0.135946 -21.861375 -0.598914 -0.243119 -16.889246 -0.556212 -0.181236 -6.446563 -5.141039 -3.974746 -14.326039 4.708303 -5.988774 30.448320 1.779414 -2.677849 12.826154 0.000000 0.000000 0.000000 10.683469 19.030299 -35.182073 18.191550 -28.401690 4.639979 12.624906 10.704188 -22.888720 0.000000 0.000000 0.000000 -7.125000 0.000000 0.000000 -16.854925 52.585206 3.219966 0.000000 0.000000 0.000000 -12.947652 21.855049 40.488471 -20.592741 -31.349907 -5.836658 -15.563459 14.882582 12.981532 0.000000 0.000000 0.000000 7.125000 0.000000 0.000000 10.676891 43.182243 0.484823
7.129917 17.381284 22.414217 0.717210 -4.835102 27.604525 0.000000 0.000000 0.000000 -11.172210 -22.947724 -29.462304 1.267691 7.136626 20.120686 -1.536857 21.753463 -13.128207 0.764117 -5.582213 -15.576823 0.000000 0.000000 0.000000 9.763386 23.269945 -34.382637 -1.859567 -8.567159 24.450624 0.161046 -14.679582 -18.996204 -0.005777 -0.489996 1.346373 -0.193986 -0.152179 -22.030928 -0.549570 -0.269676 -16.950325 -0.524296 -0.195680 -6.436052 -5.211829 -3.990933 -14.410598 4.887087 -6.068951 30.731864 1.849725 -2.695985 12.977055 0.000000 0.000000 0.000000 10.227432 19.256778 -34.505167 18.250373 -28.476616 4.668002 13.170233 9.156009 -23.331232 0.000000 0.000000 0.000000 -7.125000 0.000000 0.000000 -16.536931 53.108312 3.371392 0.000000 0.000000 0.000000 -12.912527 21.776028 40.520160 -20.591456 -31.348343 -5.835913 -15.620944 14.930847 12.856614 0.000000 0.000000 0.000000 7.125000 0.000000 0.000000 10.596226 43.061475 0.513060
7.125993 17.382708 22.428594 0.711421 -4.884337 27.520780 0.000000 0.000000 0.000000 -11.226458 -22.918637 -29.198964 1.249490 7.087032 19.973478 -1.545565 21.819106 -13.211521 0.759412 -5.565281 -15.528252 0.000000 0.000000 0.000000 9.819713 23.311328 -34.149865 -1.843998 -8.533335 24.345951 0.159909 -14.704558 -19.049469 -0.006227 -0.508179 1.396486 -0.172852 -0.168420 -22.198613 -0.506009 -0.294734 -17.004168 -0.493496 -0.208667 -6.418171 -5.279787 -4.006674 -14.497665 5.095362 -6.161989 31.043301 1.930116 -2.715181 13.143495 0.000000 0.000000 0.000000 9.741407 19.439596 -33.770733 18.244327 -28.468955 4.665163 13.656439 7.752383 -23.743521 0.000000 0.000000 0.000000 -7.125000 0.000000 0.000000 -16.261607 53.594594 3.509027 0.000000 0.000000 0.000000 -12.820251 21.701947 40.440309 -20.548805 -31.297892 -5.813735 -15.628991 14.966042 12.788547 0.000000 0.000000 0.000000 7.125000 0.000000 0.000000 10.573073 42.993531 0.529846
7.122148 17.384756 22.441254 0.703344 -4.918438 27.443047 0.000000 0.000000 0.000000 -11.249934 -22.955299 -28.924747 1.229426 7.031866 19.809832 -1.565528 21.947777 -13.280131 0.753315 -5.543613 -15.465691 0.000000 0.000000 0.000000 9.876688 23.351912 -33.918586 -1.825663 -8.493034 24.221911 0.161433 -14.744597 -19.092521 -0.006819 -0.534204 1.467907 -0.158053 -0.186380 -22.346560 -0.463116 -0.320782 -17.053397 -0.460135 -0.221532 -6.404544 -5.351561 -4.025578 -14.570518 5.327551 -6.270161 31.371706 2.019463 -2.738249 13.318401 0.000000 0.000000 0.000000 9.228324 19.578512 -32.954142 18.131999 -28.325767 4.611712 13.987555 6.791587 -24.020212 0.000000 0.000000 0.000000 -7.125000 0.000000 0.000000 -16.071895 53.923459 3.597086 0.000000 0.000000 0.000000 -12.671334 21.637875 40.247848 -20.465030 -31.198568 -5.770329 -15.577634 15.009153 12.820751 0.000000 0.000000 0.000000 7.125000 0.000000 0.000000 10.626216 43.020445 0.525478
7.118745 17.387856 22.452215 0.684465 -4.937620 27.366288 0.000000 0.000000 0.000000 -11.221440 -23.107455 -28.605273 1.205162 6.964746 19.611091 -1.607695 22.200613 -13.338009 0.743580 -5.508329 -15.364247 0.000000 0.000000 0.000000 9.950118 23.387298 -33.671077 -1.801611 -8.439964 24.058486 0.168815 -14.810613 -19.106098 -0.007200 -0.547859 1.505424 -0.135811 -0.201418 -22.465501 -0.418786 -0.344130 -17.101271 -0.428708 -0.233416 -6.403561 -5.419945 -4.048286 -14.634835 5.560238 -6.388781 31.718111 2.108228 -2.765092 13.502121 0.000000 0.000000 0.000000 8.692799 19.684841 -32.054221 17.904992 -28.035226 4.504558 14.127922 6.405009 -24.108159 0.000000 0.000000 0.000000 -7.125000 0.000000 0.000000 -15.976833 54.034772 3.618943 0.000000 0.000000 0.000000 -12.470368 21.583029 39.945530 -20.335724 -31.044681 -5.703534 -15.479216 15.090615 12.912354 0.000000 0.000000 0.000000 7.125000 0.000000 0.000000 10.735406 43.103093 0.508819
7.115787 17.392501 22.461581 0.659324 -4.946776 27.292248 0.000000 0.000000 0.000000 -11.121473 -23.451613 -28.233865 1.180083 6.894470 19.403028 -1.684435 22.650407 -13.427629 0.728310 -5.452665 -15.204166 0.000000 0.000000 0.000000 10.031250 23.417063 -33.421344 -1.774749 -8.380247 23.875118 0.179452 -14.891012 -19.101841 -0.007221 -0.549750 1.510610 -0.106231 -0.210084 -22.553956 -0.376496 -0.360219 -17.150264 -0.402425 -0.242335 -6.418938 -5.481449 -4.076586 -14.672048 5.781956 -6.516556 32.054685 2.191116 -2.796820 13.677983 0.000000 0.000000 0.000000 8.137360 19.771135 -31.088027 17.581009 -27.617139 4.353309 14.104269 6.585008 -24.046836 0.000000 0.000000 0.000000 -7.125000 0.000000 0.000000 -15.969487 53.970813 3.592034 0.000000 0.000000 0.000000 -12.221802 21.539141 39.538553 -20.161067 -30.835879 -5.613691 -15.377749 15.222702 13.030124 0.000000 0.000000 0.000000 7.125000 0.000000 0.000000 10.853696 43.211989 0.484999
7.113502 17.396047 22.469142 0.634915 -4.949115 27.224612 0.000000 0.000000 0.000000 -11.050356 -23.704417 -27.928561 1.159245 6.835582 19.229227 -1.743239 22.988043 -13.496280 0.717234 -5.411926 -15.087166 0.000000 0.000000 0.000000 10.106841 23.438638 -33.198217 -1.750724 -8.326329 23.709648 0.188683 -14.961648 -19.101015 -0.007391 -0.553719 1.521442 -0.074698 -0.212757 -22.618146 -0.339328 -0.368802 -17.194731 -0.381379 -0.247696 -6.440861 -5.535703 -4.110729 -14.672924 5.991064 -6.651663 32.355885 2.267362 -2.833327 13.832227 0.000000 0.000000 0.000000 7.567774 19.827652 -30.080498 17.165907 -27.075850 4.162621 14.006226 7.300533 -23.871351 0.000000 0.000000 0.000000 -7.125000 0.000000 0.000000 -15.979138 53.782415 3.519912 0.000000 0.000000 0.000000 -11.928466 21.491297 39.023722 -19.944766 -30.575691 -5.503198 -15.260441 15.389328 13.139726 0.000000 0.000000 0.000000 7.125000 0.000000 0.000000 10.984614 43.309939 0.464120
